<svg xmlns="http://www.w3.org/2000/svg" xmlns:xlink="http://www.w3.org/1999/xlink" width="500" zoomAndPan="magnify" viewBox="0 0 375 374.999991" height="500" preserveAspectRatio="xMidYMid meet" version="1.0"><defs><g/><clipPath id="5e04af40ff"><path d="M 14 0.398438 L 142.160156 0.398438 L 142.160156 226.71875 L 14 226.71875 Z M 14 0.398438 " clip-rule="nonzero"/></clipPath><clipPath id="9e162fd07d"><rect x="0" width="129" y="0" height="227"/></clipPath><clipPath id="c03283c450"><path d="M 0.800781 63 L 92 63 L 92 149 L 0.800781 149 Z M 0.800781 63 " clip-rule="nonzero"/></clipPath><clipPath id="e20bc1039b"><path d="M 31.089844 151.96875 L -3.03125 109.675781 L 60.835938 58.148438 L 94.953125 100.4375 Z M 31.089844 151.96875 " clip-rule="nonzero"/></clipPath><clipPath id="5dc7bb21f9"><path d="M 26 13 L 76 13 L 76 84 L 26 84 Z M 26 13 " clip-rule="nonzero"/></clipPath><clipPath id="75a3a35cf5"><path d="M 31.089844 88.96875 L -3.03125 46.675781 L 60.835938 -4.851562 L 94.953125 37.4375 Z M 31.089844 88.96875 " clip-rule="nonzero"/></clipPath><clipPath id="20e88975a5"><path d="M 94.644531 37.6875 L 60.523438 -4.601562 L -3.34375 46.925781 L 30.777344 89.21875 Z M 94.644531 37.6875 " clip-rule="nonzero"/></clipPath><clipPath id="be68653da4"><rect x="0" width="92" y="0" height="86"/></clipPath><clipPath id="c543020ef3"><rect x="0" width="143" y="0" height="227"/></clipPath></defs><g transform="matrix(1, 0, 0, 1, 112, 74)"><g clip-path="url(#c543020ef3)"><g clip-path="url(#5e04af40ff)"><g transform="matrix(1, 0, 0, 1, 14, 0)"><g clip-path="url(#9e162fd07d)"><g fill="#29465b" fill-opacity="1"><g transform="translate(37.579424, 170.008021)"><g><path d="M 11.296875 -67.8125 C 11.296875 -73.382812 13.785156 -76.171875 18.765625 -76.171875 C 21.023438 -76.171875 22.867188 -75.492188 24.296875 -74.140625 C 25.734375 -72.785156 26.453125 -70.675781 26.453125 -67.8125 C 26.453125 -64.789062 25.734375 -62.601562 24.296875 -61.25 C 22.867188 -59.894531 21.023438 -59.21875 18.765625 -59.21875 C 13.785156 -59.21875 11.296875 -62.082031 11.296875 -67.8125 Z M 11.296875 -67.8125 "/></g></g></g><g fill="#29465b" fill-opacity="1"><g transform="translate(8.19522, 170.008021)"><g><path d="M 6.78125 0 L 6.78125 -18.765625 L 50.171875 -18.765625 C 63.890625 -18.765625 73.910156 -23.242188 80.234375 -32.203125 C 86.566406 -41.171875 89.734375 -52.738281 89.734375 -66.90625 C 89.734375 -82.570312 85.960938 -94.507812 78.421875 -102.71875 C 70.890625 -110.9375 59.59375 -115.046875 44.53125 -115.046875 L 6.78125 -115.046875 L 6.78125 -133.8125 L 46.78125 -133.8125 C 60.800781 -133.8125 72.554688 -131.019531 82.046875 -125.4375 C 91.546875 -119.863281 98.703125 -112.101562 103.515625 -102.15625 C 108.335938 -92.21875 110.75 -80.691406 110.75 -67.578125 C 110.75 -54.773438 108.453125 -43.285156 103.859375 -33.109375 C 99.265625 -22.941406 92.484375 -14.878906 83.515625 -8.921875 C 74.546875 -2.972656 63.429688 0 50.171875 0 Z M 6.78125 0 "/></g></g></g></g></g></g><g clip-path="url(#c03283c450)"><g clip-path="url(#e20bc1039b)"><g transform="matrix(1, 0, 0, 1, 0, 63)"><g clip-path="url(#be68653da4)"><g clip-path="url(#5dc7bb21f9)"><g clip-path="url(#75a3a35cf5)"><g clip-path="url(#20e88975a5)"><path fill="#008080" d="M 40.746094 70.625 C 40.746094 70.625 47.992188 65.675781 48.78125 59.988281 C 49.570312 54.300781 50.558594 39.980469 56.21875 34.273438 C 56.21875 34.273438 50.777344 35.402344 48.808594 38.617188 C 48.808594 38.617188 49.996094 33.425781 54.875 29.980469 C 54.875 29.980469 62.585938 17.730469 75.761719 14.269531 C 75.761719 14.269531 45.039062 8.097656 35.207031 34.28125 C 35.207031 34.28125 34.25 28.046875 36.585938 23.066406 C 36.585938 23.066406 26.503906 36.414062 29.960938 53.824219 C 29.960938 53.824219 27.476562 49.230469 27.105469 45.132812 C 27.105469 45.132812 25.296875 56.121094 31.386719 67.503906 C 37.472656 78.882812 26.699219 83.503906 26.699219 83.503906 C 26.699219 83.503906 37.691406 83.597656 37.65625 71.242188 C 37.625 58.882812 34.78125 41.625 42.859375 31.851562 C 42.859375 31.851562 37.984375 40.347656 38.945312 52.441406 C 39.910156 64.539062 40.746094 70.625 40.746094 70.625 " fill-opacity="1" fill-rule="evenodd"/></g></g></g></g></g></g></g></g></g></svg>