<svg xmlns="http://www.w3.org/2000/svg" xmlns:xlink="http://www.w3.org/1999/xlink" width="500" zoomAndPan="magnify" viewBox="0 0 375 374.999991" height="500" preserveAspectRatio="xMidYMid meet" version="1.0"><defs><g/><clipPath id="74cb321e06"><rect x="0" width="87" y="0" height="154"/></clipPath><clipPath id="e381238565"><path d="M 18 153 L 80 153 L 80 212 L 18 212 Z M 18 153 " clip-rule="nonzero"/></clipPath><clipPath id="1461f01f9e"><path d="M 38.730469 213.515625 L 15.65625 184.914062 L 58.847656 150.066406 L 81.925781 178.667969 Z M 38.730469 213.515625 " clip-rule="nonzero"/></clipPath><clipPath id="949cd39976"><path d="M 17 9 L 51 9 L 51 57 L 17 57 Z M 17 9 " clip-rule="nonzero"/></clipPath><clipPath id="235956f030"><path d="M 20.730469 60.515625 L -2.34375 31.914062 L 40.847656 -2.933594 L 63.925781 25.667969 Z M 20.730469 60.515625 " clip-rule="nonzero"/></clipPath><clipPath id="2e20d663f5"><path d="M 63.714844 25.835938 L 40.640625 -2.765625 L -2.554688 32.082031 L 20.519531 60.683594 Z M 63.714844 25.835938 " clip-rule="nonzero"/></clipPath><clipPath id="011f87dce4"><rect x="0" width="62" y="0" height="59"/></clipPath></defs><g fill="#008080" fill-opacity="1"><g transform="translate(103.743053, 219.749986)"><g><path d="M 7.953125 -66.25 L 22.53125 -66.25 L 22.53125 -37.28125 L 49.21875 -66.25 L 67.09375 -66.25 L 40.03125 -38.140625 L 68.234375 0 L 50.734375 0 L 30.1875 -28.203125 L 22.53125 -20.25 L 22.53125 0 L 7.953125 0 Z M 7.953125 -66.25 "/></g></g></g><g fill="#008080" fill-opacity="1"><g transform="translate(166.386496, 219.749986)"><g><path d="M 39.75 -50.734375 L 54.703125 -50.734375 L 35.203125 1.234375 C 34.253906 3.816406 33.242188 6.003906 32.171875 7.796875 C 31.097656 9.597656 29.914062 11.066406 28.625 12.203125 C 27.332031 13.335938 25.863281 14.15625 24.21875 14.65625 C 22.582031 15.164062 20.691406 15.421875 18.546875 15.421875 C 15.898438 15.421875 13.566406 15.101562 11.546875 14.46875 C 9.523438 13.84375 7.597656 12.992188 5.765625 11.921875 L 10.59375 1.515625 C 11.539062 2.078125 12.566406 2.546875 13.671875 2.921875 C 14.773438 3.304688 15.800781 3.5 16.75 3.5 C 18.007812 3.5 19.003906 3.257812 19.734375 2.78125 C 20.460938 2.3125 21.140625 1.445312 21.765625 0.1875 L 1.890625 -50.734375 L 17.125 -50.734375 L 28.671875 -16.1875 Z M 39.75 -50.734375 "/></g></g></g><g fill="#008080" fill-opacity="1"><g transform="translate(216.728183, 219.749986)"><g><path d="M 6.4375 -50.734375 L 20.828125 -50.734375 L 20.828125 -40.5 C 22.273438 -43.976562 24.257812 -46.753906 26.78125 -48.828125 C 29.300781 -50.910156 32.707031 -51.859375 37 -51.671875 L 37 -36.625 L 36.25 -36.625 C 31.457031 -36.625 27.6875 -35.171875 24.9375 -32.265625 C 22.195312 -29.367188 20.828125 -24.859375 20.828125 -18.734375 L 20.828125 0 L 6.4375 0 Z M 6.4375 -50.734375 "/></g></g></g><g fill="#008080" fill-opacity="1"><g transform="translate(249.847416, 219.749986)"><g><path d="M 31.328125 1.140625 C 27.410156 1.140625 23.78125 0.460938 20.4375 -0.890625 C 17.09375 -2.253906 14.207031 -4.117188 11.78125 -6.484375 C 9.351562 -8.847656 7.441406 -11.625 6.046875 -14.8125 C 4.660156 -18 3.96875 -21.421875 3.96875 -25.078125 L 3.96875 -25.265625 C 3.96875 -28.929688 4.660156 -32.351562 6.046875 -35.53125 C 7.441406 -38.71875 9.367188 -41.507812 11.828125 -43.90625 C 14.285156 -46.3125 17.1875 -48.207031 20.53125 -49.59375 C 23.875 -50.976562 27.535156 -51.671875 31.515625 -51.671875 C 35.429688 -51.671875 39.0625 -50.992188 42.40625 -49.640625 C 45.75 -48.285156 48.632812 -46.421875 51.0625 -44.046875 C 53.488281 -41.679688 55.394531 -38.90625 56.78125 -35.71875 C 58.164062 -32.539062 58.859375 -29.117188 58.859375 -25.453125 L 58.859375 -25.265625 C 58.859375 -21.609375 58.164062 -18.1875 56.78125 -15 C 55.394531 -11.8125 53.472656 -9.019531 51.015625 -6.625 C 48.554688 -4.226562 45.648438 -2.332031 42.296875 -0.9375 C 38.953125 0.445312 35.296875 1.140625 31.328125 1.140625 Z M 31.515625 -11.265625 C 33.597656 -11.265625 35.441406 -11.625 37.046875 -12.34375 C 38.660156 -13.070312 40.035156 -14.066406 41.171875 -15.328125 C 42.304688 -16.585938 43.171875 -18.050781 43.765625 -19.71875 C 44.367188 -21.394531 44.671875 -23.179688 44.671875 -25.078125 L 44.671875 -25.265625 C 44.671875 -27.160156 44.351562 -28.941406 43.71875 -30.609375 C 43.09375 -32.285156 42.179688 -33.769531 40.984375 -35.0625 C 39.785156 -36.351562 38.363281 -37.378906 36.71875 -38.140625 C 35.082031 -38.898438 33.285156 -39.28125 31.328125 -39.28125 C 29.242188 -39.28125 27.394531 -38.914062 25.78125 -38.1875 C 24.175781 -37.457031 22.804688 -36.460938 21.671875 -35.203125 C 20.535156 -33.941406 19.664062 -32.472656 19.0625 -30.796875 C 18.46875 -29.128906 18.171875 -27.347656 18.171875 -25.453125 L 18.171875 -25.265625 C 18.171875 -23.378906 18.484375 -21.597656 19.109375 -19.921875 C 19.742188 -18.242188 20.660156 -16.757812 21.859375 -15.46875 C 23.054688 -14.175781 24.457031 -13.148438 26.0625 -12.390625 C 27.675781 -11.640625 29.492188 -11.265625 31.515625 -11.265625 Z M 31.515625 -11.265625 "/></g></g></g><g fill="#008080" fill-opacity="1"><g transform="translate(306.24535, 219.749986)"><g><path d="M 24.234375 0.953125 C 20.628906 0.953125 16.953125 0.335938 13.203125 -0.890625 C 9.453125 -2.128906 5.867188 -4.070312 2.453125 -6.71875 L 8.609375 -16.1875 C 11.390625 -14.164062 14.148438 -12.648438 16.890625 -11.640625 C 19.640625 -10.628906 22.210938 -10.125 24.609375 -10.125 C 26.691406 -10.125 28.21875 -10.46875 29.1875 -11.15625 C 30.164062 -11.851562 30.65625 -12.769531 30.65625 -13.90625 L 30.65625 -14.09375 C 30.65625 -14.851562 30.367188 -15.515625 29.796875 -16.078125 C 29.234375 -16.648438 28.460938 -17.140625 27.484375 -17.546875 C 26.515625 -17.960938 25.394531 -18.359375 24.125 -18.734375 C 22.863281 -19.117188 21.539062 -19.53125 20.15625 -19.96875 C 18.394531 -20.46875 16.613281 -21.082031 14.8125 -21.8125 C 13.007812 -22.539062 11.382812 -23.488281 9.9375 -24.65625 C 8.488281 -25.820312 7.304688 -27.253906 6.390625 -28.953125 C 5.472656 -30.660156 5.015625 -32.742188 5.015625 -35.203125 L 5.015625 -35.390625 C 5.015625 -37.984375 5.503906 -40.269531 6.484375 -42.25 C 7.460938 -44.238281 8.785156 -45.925781 10.453125 -47.3125 C 12.128906 -48.707031 14.085938 -49.75 16.328125 -50.4375 C 18.566406 -51.132812 20.976562 -51.484375 23.5625 -51.484375 C 26.78125 -51.484375 30.046875 -50.960938 33.359375 -49.921875 C 36.671875 -48.878906 39.71875 -47.441406 42.5 -45.609375 L 37 -35.671875 C 34.476562 -37.128906 32.019531 -38.28125 29.625 -39.125 C 27.226562 -39.976562 25.113281 -40.40625 23.28125 -40.40625 C 21.507812 -40.40625 20.179688 -40.070312 19.296875 -39.40625 C 18.421875 -38.75 17.984375 -37.914062 17.984375 -36.90625 L 17.984375 -36.71875 C 17.984375 -36.019531 18.265625 -35.40625 18.828125 -34.875 C 19.398438 -34.34375 20.160156 -33.835938 21.109375 -33.359375 C 22.054688 -32.890625 23.144531 -32.429688 24.375 -31.984375 C 25.601562 -31.546875 26.910156 -31.101562 28.296875 -30.65625 C 30.066406 -30.09375 31.863281 -29.414062 33.6875 -28.625 C 35.519531 -27.84375 37.160156 -26.878906 38.609375 -25.734375 C 40.066406 -24.597656 41.265625 -23.210938 42.203125 -21.578125 C 43.148438 -19.941406 43.625 -17.953125 43.625 -15.609375 L 43.625 -15.421875 C 43.625 -12.585938 43.132812 -10.144531 42.15625 -8.09375 C 41.1875 -6.039062 39.816406 -4.351562 38.046875 -3.03125 C 36.273438 -1.707031 34.207031 -0.710938 31.84375 -0.046875 C 29.476562 0.617188 26.941406 0.953125 24.234375 0.953125 Z M 24.234375 0.953125 "/></g></g></g><g transform="matrix(1, 0, 0, 1, 27, 110)"><g clip-path="url(#74cb321e06)"><g fill="#29465b" fill-opacity="1"><g transform="translate(25.589159, 115.717729)"><g><path d="M 7.640625 -45.859375 C 7.640625 -49.628906 9.320312 -51.515625 12.6875 -51.515625 C 14.21875 -51.515625 15.46875 -51.054688 16.4375 -50.140625 C 17.40625 -49.222656 17.890625 -47.796875 17.890625 -45.859375 C 17.890625 -43.828125 17.40625 -42.347656 16.4375 -41.421875 C 15.46875 -40.503906 14.21875 -40.046875 12.6875 -40.046875 C 9.320312 -40.046875 7.640625 -41.984375 7.640625 -45.859375 Z M 7.640625 -45.859375 "/></g></g></g><g fill="#29465b" fill-opacity="1"><g transform="translate(5.715916, 115.717729)"><g><path d="M 4.59375 0 L 4.59375 -12.6875 L 33.9375 -12.6875 C 43.207031 -12.6875 49.984375 -15.71875 54.265625 -21.78125 C 58.546875 -27.84375 60.6875 -35.664062 60.6875 -45.25 C 60.6875 -55.851562 58.140625 -63.929688 53.046875 -69.484375 C 47.953125 -75.035156 40.304688 -77.8125 30.109375 -77.8125 L 4.59375 -77.8125 L 4.59375 -90.5 L 31.640625 -90.5 C 41.117188 -90.5 49.066406 -88.613281 55.484375 -84.84375 C 61.910156 -81.070312 66.753906 -75.820312 70.015625 -69.09375 C 73.273438 -62.375 74.90625 -54.578125 74.90625 -45.703125 C 74.90625 -37.046875 73.347656 -29.273438 70.234375 -22.390625 C 67.128906 -15.515625 62.546875 -10.0625 56.484375 -6.03125 C 50.421875 -2.007812 42.90625 0 33.9375 0 Z M 4.59375 0 "/></g></g></g></g></g><g clip-path="url(#e381238565)"><g clip-path="url(#1461f01f9e)"><g transform="matrix(1, 0, 0, 1, 18, 153)"><g clip-path="url(#011f87dce4)"><g clip-path="url(#949cd39976)"><g clip-path="url(#235956f030)"><g clip-path="url(#2e20d663f5)"><path fill="#008080" d="M 27.261719 48.109375 C 27.261719 48.109375 32.164062 44.761719 32.695312 40.917969 C 33.230469 37.070312 33.898438 27.386719 37.726562 23.523438 C 37.726562 23.523438 34.046875 24.289062 32.714844 26.464844 C 32.714844 26.464844 33.519531 22.953125 36.816406 20.621094 C 36.816406 20.621094 42.035156 12.335938 50.941406 9.996094 C 50.941406 9.996094 30.167969 5.824219 23.515625 23.53125 C 23.515625 23.53125 22.871094 19.3125 24.449219 15.945312 C 24.449219 15.945312 17.628906 24.972656 19.96875 36.75 C 19.96875 36.75 18.289062 33.640625 18.035156 30.871094 C 18.035156 30.871094 16.816406 38.300781 20.929688 46 C 25.046875 53.695312 17.761719 56.820312 17.761719 56.820312 C 17.761719 56.820312 25.195312 56.886719 25.171875 48.527344 C 25.152344 40.167969 23.230469 28.5 28.691406 21.886719 C 28.691406 21.886719 25.394531 27.632812 26.042969 35.8125 C 26.695312 43.996094 27.261719 48.109375 27.261719 48.109375 " fill-opacity="1" fill-rule="evenodd"/></g></g></g></g></g></g></g></svg>