<svg xmlns="http://www.w3.org/2000/svg" xmlns:xlink="http://www.w3.org/1999/xlink" width="500" zoomAndPan="magnify" viewBox="0 0 375 374.999991" height="500" preserveAspectRatio="xMidYMid meet" version="1.0"><defs><g/><clipPath id="f9ab987920"><rect x="0" width="87" y="0" height="154"/></clipPath><clipPath id="4a1c239a8e"><path d="M 17 153 L 80 153 L 80 212 L 17 212 Z M 17 153 " clip-rule="nonzero"/></clipPath><clipPath id="4126f62786"><path d="M 38.28125 213.515625 L 15.207031 184.914062 L 58.402344 150.066406 L 81.476562 178.667969 Z M 38.28125 213.515625 " clip-rule="nonzero"/></clipPath><clipPath id="fdc433f71d"><path d="M 18 9 L 52 9 L 52 57 L 18 57 Z M 18 9 " clip-rule="nonzero"/></clipPath><clipPath id="6d479c4487"><path d="M 21.28125 60.515625 L -1.792969 31.914062 L 41.402344 -2.933594 L 64.476562 25.667969 Z M 21.28125 60.515625 " clip-rule="nonzero"/></clipPath><clipPath id="723ea7633b"><path d="M 64.265625 25.835938 L 41.191406 -2.765625 L -2.003906 32.082031 L 21.074219 60.683594 Z M 64.265625 25.835938 " clip-rule="nonzero"/></clipPath><clipPath id="a637d340e9"><rect x="0" width="63" y="0" height="59"/></clipPath></defs><g fill="#008080" fill-opacity="1"><g transform="translate(103.294766, 219.749986)"><g><path d="M 7.953125 -66.25 L 22.53125 -66.25 L 22.53125 -37.28125 L 49.21875 -66.25 L 67.09375 -66.25 L 40.03125 -38.140625 L 68.234375 0 L 50.734375 0 L 30.1875 -28.203125 L 22.53125 -20.25 L 22.53125 0 L 7.953125 0 Z M 7.953125 -66.25 "/></g></g></g><g fill="#008080" fill-opacity="1"><g transform="translate(165.93821, 219.749986)"><g><path d="M 39.75 -50.734375 L 54.703125 -50.734375 L 35.203125 1.234375 C 34.253906 3.816406 33.242188 6.003906 32.171875 7.796875 C 31.097656 9.597656 29.914062 11.066406 28.625 12.203125 C 27.332031 13.335938 25.863281 14.15625 24.21875 14.65625 C 22.582031 15.164062 20.691406 15.421875 18.546875 15.421875 C 15.898438 15.421875 13.566406 15.101562 11.546875 14.46875 C 9.523438 13.84375 7.597656 12.992188 5.765625 11.921875 L 10.59375 1.515625 C 11.539062 2.078125 12.566406 2.546875 13.671875 2.921875 C 14.773438 3.304688 15.800781 3.5 16.75 3.5 C 18.007812 3.5 19.003906 3.257812 19.734375 2.78125 C 20.460938 2.3125 21.140625 1.445312 21.765625 0.1875 L 1.890625 -50.734375 L 17.125 -50.734375 L 28.671875 -16.1875 Z M 39.75 -50.734375 "/></g></g></g><g fill="#008080" fill-opacity="1"><g transform="translate(216.279896, 219.749986)"><g><path d="M 6.4375 -50.734375 L 20.828125 -50.734375 L 20.828125 -40.5 C 22.273438 -43.976562 24.257812 -46.753906 26.78125 -48.828125 C 29.300781 -50.910156 32.707031 -51.859375 37 -51.671875 L 37 -36.625 L 36.25 -36.625 C 31.457031 -36.625 27.6875 -35.171875 24.9375 -32.265625 C 22.195312 -29.367188 20.828125 -24.859375 20.828125 -18.734375 L 20.828125 0 L 6.4375 0 Z M 6.4375 -50.734375 "/></g></g></g><g fill="#008080" fill-opacity="1"><g transform="translate(249.39913, 219.749986)"><g><path d="M 31.328125 1.140625 C 27.410156 1.140625 23.78125 0.460938 20.4375 -0.890625 C 17.09375 -2.253906 14.207031 -4.117188 11.78125 -6.484375 C 9.351562 -8.847656 7.441406 -11.625 6.046875 -14.8125 C 4.660156 -18 3.96875 -21.421875 3.96875 -25.078125 L 3.96875 -25.265625 C 3.96875 -28.929688 4.660156 -32.351562 6.046875 -35.53125 C 7.441406 -38.71875 9.367188 -41.507812 11.828125 -43.90625 C 14.285156 -46.3125 17.1875 -48.207031 20.53125 -49.59375 C 23.875 -50.976562 27.535156 -51.671875 31.515625 -51.671875 C 35.429688 -51.671875 39.0625 -50.992188 42.40625 -49.640625 C 45.75 -48.285156 48.632812 -46.421875 51.0625 -44.046875 C 53.488281 -41.679688 55.394531 -38.90625 56.78125 -35.71875 C 58.164062 -32.539062 58.859375 -29.117188 58.859375 -25.453125 L 58.859375 -25.265625 C 58.859375 -21.609375 58.164062 -18.1875 56.78125 -15 C 55.394531 -11.8125 53.472656 -9.019531 51.015625 -6.625 C 48.554688 -4.226562 45.648438 -2.332031 42.296875 -0.9375 C 38.953125 0.445312 35.296875 1.140625 31.328125 1.140625 Z M 31.515625 -11.265625 C 33.597656 -11.265625 35.441406 -11.625 37.046875 -12.34375 C 38.660156 -13.070312 40.035156 -14.066406 41.171875 -15.328125 C 42.304688 -16.585938 43.171875 -18.050781 43.765625 -19.71875 C 44.367188 -21.394531 44.671875 -23.179688 44.671875 -25.078125 L 44.671875 -25.265625 C 44.671875 -27.160156 44.351562 -28.941406 43.71875 -30.609375 C 43.09375 -32.285156 42.179688 -33.769531 40.984375 -35.0625 C 39.785156 -36.351562 38.363281 -37.378906 36.71875 -38.140625 C 35.082031 -38.898438 33.285156 -39.28125 31.328125 -39.28125 C 29.242188 -39.28125 27.394531 -38.914062 25.78125 -38.1875 C 24.175781 -37.457031 22.804688 -36.460938 21.671875 -35.203125 C 20.535156 -33.941406 19.664062 -32.472656 19.0625 -30.796875 C 18.46875 -29.128906 18.171875 -27.347656 18.171875 -25.453125 L 18.171875 -25.265625 C 18.171875 -23.378906 18.484375 -21.597656 19.109375 -19.921875 C 19.742188 -18.242188 20.660156 -16.757812 21.859375 -15.46875 C 23.054688 -14.175781 24.457031 -13.148438 26.0625 -12.390625 C 27.675781 -11.640625 29.492188 -11.265625 31.515625 -11.265625 Z M 31.515625 -11.265625 "/></g></g></g><g fill="#008080" fill-opacity="1"><g transform="translate(305.797064, 219.749986)"><g><path d="M 24.234375 0.953125 C 20.628906 0.953125 16.953125 0.335938 13.203125 -0.890625 C 9.453125 -2.128906 5.867188 -4.070312 2.453125 -6.71875 L 8.609375 -16.1875 C 11.390625 -14.164062 14.148438 -12.648438 16.890625 -11.640625 C 19.640625 -10.628906 22.210938 -10.125 24.609375 -10.125 C 26.691406 -10.125 28.21875 -10.46875 29.1875 -11.15625 C 30.164062 -11.851562 30.65625 -12.769531 30.65625 -13.90625 L 30.65625 -14.09375 C 30.65625 -14.851562 30.367188 -15.515625 29.796875 -16.078125 C 29.234375 -16.648438 28.460938 -17.140625 27.484375 -17.546875 C 26.515625 -17.960938 25.394531 -18.359375 24.125 -18.734375 C 22.863281 -19.117188 21.539062 -19.53125 20.15625 -19.96875 C 18.394531 -20.46875 16.613281 -21.082031 14.8125 -21.8125 C 13.007812 -22.539062 11.382812 -23.488281 9.9375 -24.65625 C 8.488281 -25.820312 7.304688 -27.253906 6.390625 -28.953125 C 5.472656 -30.660156 5.015625 -32.742188 5.015625 -35.203125 L 5.015625 -35.390625 C 5.015625 -37.984375 5.503906 -40.269531 6.484375 -42.25 C 7.460938 -44.238281 8.785156 -45.925781 10.453125 -47.3125 C 12.128906 -48.707031 14.085938 -49.75 16.328125 -50.4375 C 18.566406 -51.132812 20.976562 -51.484375 23.5625 -51.484375 C 26.78125 -51.484375 30.046875 -50.960938 33.359375 -49.921875 C 36.671875 -48.878906 39.71875 -47.441406 42.5 -45.609375 L 37 -35.671875 C 34.476562 -37.128906 32.019531 -38.28125 29.625 -39.125 C 27.226562 -39.976562 25.113281 -40.40625 23.28125 -40.40625 C 21.507812 -40.40625 20.179688 -40.070312 19.296875 -39.40625 C 18.421875 -38.75 17.984375 -37.914062 17.984375 -36.90625 L 17.984375 -36.71875 C 17.984375 -36.019531 18.265625 -35.40625 18.828125 -34.875 C 19.398438 -34.34375 20.160156 -33.835938 21.109375 -33.359375 C 22.054688 -32.890625 23.144531 -32.429688 24.375 -31.984375 C 25.601562 -31.546875 26.910156 -31.101562 28.296875 -30.65625 C 30.066406 -30.09375 31.863281 -29.414062 33.6875 -28.625 C 35.519531 -27.84375 37.160156 -26.878906 38.609375 -25.734375 C 40.066406 -24.597656 41.265625 -23.210938 42.203125 -21.578125 C 43.148438 -19.941406 43.625 -17.953125 43.625 -15.609375 L 43.625 -15.421875 C 43.625 -12.585938 43.132812 -10.144531 42.15625 -8.09375 C 41.1875 -6.039062 39.816406 -4.351562 38.046875 -3.03125 C 36.273438 -1.707031 34.207031 -0.710938 31.84375 -0.046875 C 29.476562 0.617188 26.941406 0.953125 24.234375 0.953125 Z M 24.234375 0.953125 "/></g></g></g><g transform="matrix(1, 0, 0, 1, 27, 110)"><g clip-path="url(#f9ab987920)"><g fill="#f0f8ff" fill-opacity="1"><g transform="translate(25.140866, 115.717729)"><g><path d="M 7.640625 -45.859375 C 7.640625 -49.628906 9.320312 -51.515625 12.6875 -51.515625 C 14.21875 -51.515625 15.46875 -51.054688 16.4375 -50.140625 C 17.40625 -49.222656 17.890625 -47.796875 17.890625 -45.859375 C 17.890625 -43.828125 17.40625 -42.347656 16.4375 -41.421875 C 15.46875 -40.503906 14.21875 -40.046875 12.6875 -40.046875 C 9.320312 -40.046875 7.640625 -41.984375 7.640625 -45.859375 Z M 7.640625 -45.859375 "/></g></g></g><g fill="#f0f8ff" fill-opacity="1"><g transform="translate(5.267623, 115.717729)"><g><path d="M 4.59375 0 L 4.59375 -12.6875 L 33.9375 -12.6875 C 43.207031 -12.6875 49.984375 -15.71875 54.265625 -21.78125 C 58.546875 -27.84375 60.6875 -35.664062 60.6875 -45.25 C 60.6875 -55.851562 58.140625 -63.929688 53.046875 -69.484375 C 47.953125 -75.035156 40.304688 -77.8125 30.109375 -77.8125 L 4.59375 -77.8125 L 4.59375 -90.5 L 31.640625 -90.5 C 41.117188 -90.5 49.066406 -88.613281 55.484375 -84.84375 C 61.910156 -81.070312 66.753906 -75.820312 70.015625 -69.09375 C 73.273438 -62.375 74.90625 -54.578125 74.90625 -45.703125 C 74.90625 -37.046875 73.347656 -29.273438 70.234375 -22.390625 C 67.128906 -15.515625 62.546875 -10.0625 56.484375 -6.03125 C 50.421875 -2.007812 42.90625 0 33.9375 0 Z M 4.59375 0 "/></g></g></g></g></g><g clip-path="url(#4a1c239a8e)"><g clip-path="url(#4126f62786)"><g transform="matrix(1, 0, 0, 1, 17, 153)"><g clip-path="url(#a637d340e9)"><g clip-path="url(#fdc433f71d)"><g clip-path="url(#6d479c4487)"><g clip-path="url(#723ea7633b)"><path fill="#008080" d="M 27.8125 48.109375 C 27.8125 48.109375 32.714844 44.761719 33.25 40.917969 C 33.78125 37.070312 34.449219 27.386719 38.277344 23.523438 C 38.277344 23.523438 34.597656 24.289062 33.269531 26.464844 C 33.269531 26.464844 34.070312 22.953125 37.371094 20.621094 C 37.371094 20.621094 42.585938 12.335938 51.496094 9.996094 C 51.496094 9.996094 30.71875 5.824219 24.066406 23.53125 C 24.066406 23.53125 23.421875 19.3125 25 15.945312 C 25 15.945312 18.179688 24.972656 20.519531 36.75 C 20.519531 36.75 18.839844 33.640625 18.585938 30.871094 C 18.585938 30.871094 17.367188 38.300781 21.484375 46 C 25.601562 53.695312 18.3125 56.820312 18.3125 56.820312 C 18.3125 56.820312 25.746094 56.886719 25.726562 48.527344 C 25.703125 40.167969 23.78125 28.5 29.246094 21.886719 C 29.246094 21.886719 25.945312 27.632812 26.597656 35.8125 C 27.246094 43.996094 27.8125 48.109375 27.8125 48.109375 " fill-opacity="1" fill-rule="evenodd"/></g></g></g></g></g></g></g><g fill="#f0f8ff" fill-opacity="1"><g transform="translate(94.176401, 248.260839)"><g><path d="M 6.515625 -11.609375 C 7.398438 -11.609375 8.179688 -11.453125 8.859375 -11.140625 C 9.546875 -10.828125 10.097656 -10.394531 10.515625 -9.84375 L 9.34375 -8.984375 C 9 -9.453125 8.578125 -9.800781 8.078125 -10.03125 C 7.578125 -10.257812 7.054688 -10.375 6.515625 -10.375 C 5.304688 -10.375 4.285156 -9.910156 3.453125 -8.984375 C 2.628906 -8.066406 2.207031 -6.957031 2.1875 -5.65625 C 2.1875 -4.3125 2.597656 -3.191406 3.421875 -2.296875 C 4.242188 -1.410156 5.273438 -0.960938 6.515625 -0.953125 C 7.867188 -0.953125 8.960938 -1.484375 9.796875 -2.546875 L 10.796875 -1.703125 C 9.804688 -0.378906 8.378906 0.28125 6.515625 0.28125 C 4.859375 0.28125 3.488281 -0.285156 2.40625 -1.421875 C 1.320312 -2.566406 0.769531 -3.976562 0.75 -5.65625 C 0.75 -7.34375 1.296875 -8.75 2.390625 -9.875 C 3.484375 -11.007812 4.859375 -11.585938 6.515625 -11.609375 Z M 6.515625 -11.609375 "/></g></g></g><g fill="#f0f8ff" fill-opacity="1"><g transform="translate(104.349248, 248.260839)"><g><path d="M 4.0625 -7.6875 C 5.15625 -7.6875 5.945312 -7.425781 6.4375 -6.90625 C 6.9375 -6.394531 7.191406 -5.625 7.203125 -4.59375 L 7.203125 -1.234375 C 7.203125 -0.910156 7.238281 -0.5 7.3125 0 L 6.109375 0 C 6.054688 -0.09375 6.03125 -0.46875 6.03125 -1.125 L 6 -1.125 C 5.4375 -0.269531 4.613281 0.164062 3.53125 0.1875 C 2.707031 0.1875 2.035156 -0.015625 1.515625 -0.421875 C 1.003906 -0.835938 0.75 -1.375 0.75 -2.03125 C 0.75 -2.9375 1.117188 -3.597656 1.859375 -4.015625 C 2.609375 -4.441406 3.78125 -4.65625 5.375 -4.65625 L 5.953125 -4.65625 L 5.953125 -4.859375 C 5.953125 -5.953125 5.332031 -6.507812 4.09375 -6.53125 C 3.195312 -6.53125 2.457031 -6.257812 1.875 -5.71875 L 1.09375 -6.53125 C 1.851562 -7.269531 2.84375 -7.65625 4.0625 -7.6875 Z M 2.09375 -2.15625 C 2.09375 -1.3125 2.644531 -0.878906 3.75 -0.859375 C 4.394531 -0.859375 4.921875 -1.066406 5.328125 -1.484375 C 5.742188 -1.898438 5.953125 -2.507812 5.953125 -3.3125 L 5.953125 -3.59375 L 4.578125 -3.59375 C 3.835938 -3.59375 3.238281 -3.472656 2.78125 -3.234375 C 2.332031 -3.003906 2.101562 -2.644531 2.09375 -2.15625 Z M 2.09375 -2.15625 "/></g></g></g><g fill="#f0f8ff" fill-opacity="1"><g transform="translate(111.562802, 248.260839)"><g><path d="M 5.09375 -7.6875 C 6.269531 -7.6875 7.21875 -7.3125 7.9375 -6.5625 C 8.65625 -5.8125 9.019531 -4.875 9.03125 -3.75 C 9.03125 -2.625 8.664062 -1.691406 7.9375 -0.953125 C 7.207031 -0.210938 6.320312 0.164062 5.28125 0.1875 C 4.632812 0.1875 4.050781 0.0507812 3.53125 -0.21875 C 3.019531 -0.5 2.644531 -0.867188 2.40625 -1.328125 L 2.375 -1.328125 L 2.375 3.640625 L 1.125 3.640625 L 1.125 -7.484375 L 2.375 -7.484375 L 2.375 -6.40625 L 2.40625 -6.40625 C 3.132812 -7.257812 4.03125 -7.6875 5.09375 -7.6875 Z M 2.375 -3.75 C 2.375 -2.925781 2.617188 -2.257812 3.109375 -1.75 C 3.609375 -1.238281 4.25 -0.972656 5.03125 -0.953125 C 5.800781 -0.953125 6.429688 -1.210938 6.921875 -1.734375 C 7.410156 -2.253906 7.664062 -2.925781 7.6875 -3.75 C 7.6875 -4.550781 7.4375 -5.210938 6.9375 -5.734375 C 6.4375 -6.265625 5.796875 -6.53125 5.015625 -6.53125 C 4.242188 -6.53125 3.613281 -6.269531 3.125 -5.75 C 2.632812 -5.226562 2.382812 -4.5625 2.375 -3.75 Z M 2.375 -3.75 "/></g></g></g><g fill="#f0f8ff" fill-opacity="1"><g transform="translate(120.248008, 248.260839)"><g><path d="M 3.078125 -9.609375 L 3.078125 -7.484375 L 5.28125 -7.484375 L 5.28125 -6.4375 L 3.078125 -6.4375 L 3.078125 -2.4375 C 3.078125 -1.832031 3.171875 -1.429688 3.359375 -1.234375 C 3.546875 -1.046875 3.820312 -0.953125 4.1875 -0.953125 C 4.601562 -0.953125 4.972656 -1.039062 5.296875 -1.21875 L 5.34375 -0.078125 C 4.914062 0.0976562 4.429688 0.1875 3.890625 0.1875 C 3.117188 0.1875 2.582031 0 2.28125 -0.375 C 1.976562 -0.75 1.828125 -1.367188 1.828125 -2.234375 L 1.828125 -6.4375 L 0.1875 -6.4375 L 0.1875 -7.484375 L 1.828125 -7.484375 L 1.828125 -9.609375 Z M 3.078125 -9.609375 "/></g></g></g><g fill="#f0f8ff" fill-opacity="1"><g transform="translate(124.790214, 248.260839)"><g><path d="M 2.4375 -7.484375 L 2.4375 -2.9375 C 2.4375 -2.363281 2.570312 -1.890625 2.84375 -1.515625 C 3.113281 -1.148438 3.546875 -0.960938 4.140625 -0.953125 C 4.910156 -0.953125 5.488281 -1.207031 5.875 -1.71875 C 6.269531 -2.238281 6.46875 -2.925781 6.46875 -3.78125 L 6.46875 -7.484375 L 7.71875 -7.484375 L 7.71875 -1.65625 C 7.726562 -1.363281 7.75 -0.8125 7.78125 0 L 6.59375 0 C 6.582031 -0.507812 6.570312 -0.921875 6.5625 -1.234375 L 6.53125 -1.234375 C 6.332031 -0.816406 6.003906 -0.472656 5.546875 -0.203125 C 5.097656 0.0546875 4.585938 0.1875 4.015625 0.1875 C 3.097656 0.175781 2.394531 -0.09375 1.90625 -0.625 C 1.425781 -1.164062 1.1875 -1.890625 1.1875 -2.796875 L 1.1875 -7.484375 Z M 2.4375 -7.484375 "/></g></g></g><g fill="#f0f8ff" fill-opacity="1"><g transform="translate(132.595633, 248.260839)"><g><path d="M 4.859375 -7.6875 C 5.054688 -7.6875 5.226562 -7.65625 5.375 -7.59375 L 5.296875 -6.34375 C 5.054688 -6.40625 4.832031 -6.4375 4.625 -6.4375 C 3.894531 -6.4375 3.347656 -6.195312 2.984375 -5.71875 C 2.617188 -5.25 2.4375 -4.582031 2.4375 -3.71875 L 2.4375 0 L 1.1875 0 L 1.1875 -5.828125 C 1.1875 -5.972656 1.164062 -6.523438 1.125 -7.484375 L 2.296875 -7.484375 C 2.328125 -6.742188 2.34375 -6.332031 2.34375 -6.25 L 2.375 -6.25 C 2.570312 -6.675781 2.894531 -7.019531 3.34375 -7.28125 C 3.800781 -7.550781 4.304688 -7.6875 4.859375 -7.6875 Z M 4.859375 -7.6875 "/></g></g></g><g fill="#f0f8ff" fill-opacity="1"><g transform="translate(136.849745, 248.260839)"><g><path d="M 4.59375 -7.6875 C 5.695312 -7.6875 6.5625 -7.332031 7.1875 -6.625 C 7.8125 -5.925781 8.128906 -4.9375 8.140625 -3.65625 L 8.140625 -3.359375 L 2.09375 -3.359375 C 2.15625 -2.660156 2.414062 -2.085938 2.875 -1.640625 C 3.332031 -1.191406 3.894531 -0.960938 4.5625 -0.953125 C 5.570312 -0.953125 6.359375 -1.332031 6.921875 -2.09375 L 7.875 -1.359375 C 7.476562 -0.847656 7.015625 -0.460938 6.484375 -0.203125 C 5.953125 0.0546875 5.3125 0.1875 4.5625 0.1875 C 3.414062 0.1875 2.492188 -0.179688 1.796875 -0.921875 C 1.109375 -1.660156 0.757812 -2.601562 0.75 -3.75 C 0.75 -4.875 1.101562 -5.800781 1.8125 -6.53125 C 2.519531 -7.269531 3.445312 -7.65625 4.59375 -7.6875 Z M 6.796875 -4.421875 C 6.765625 -5.066406 6.550781 -5.578125 6.15625 -5.953125 C 5.769531 -6.335938 5.226562 -6.53125 4.53125 -6.53125 C 3.882812 -6.53125 3.34375 -6.347656 2.90625 -5.984375 C 2.46875 -5.617188 2.195312 -5.097656 2.09375 -4.421875 Z M 6.796875 -4.421875 "/></g></g></g><g fill="#f0f8ff" fill-opacity="1"><g transform="translate(144.655165, 248.260839)"><g/></g></g><g fill="#f0f8ff" fill-opacity="1"><g transform="translate(148.013651, 248.260839)"><g><path d="M 2.75 -11.328125 L 2.75 0 L 1.40625 0 L 1.40625 -11.328125 Z M 2.75 -11.328125 "/></g></g></g><g fill="#f0f8ff" fill-opacity="1"><g transform="translate(151.084203, 248.260839)"><g><path d="M 4.859375 -7.6875 C 5.796875 -7.6875 6.503906 -7.410156 6.984375 -6.859375 C 7.472656 -6.316406 7.71875 -5.59375 7.71875 -4.6875 L 7.71875 0 L 6.46875 0 L 6.46875 -4.546875 C 6.46875 -5.117188 6.332031 -5.585938 6.0625 -5.953125 C 5.789062 -6.328125 5.351562 -6.519531 4.75 -6.53125 C 3.976562 -6.53125 3.398438 -6.273438 3.015625 -5.765625 C 2.628906 -5.265625 2.4375 -4.5625 2.4375 -3.65625 L 2.4375 0 L 1.1875 0 L 1.1875 -5.828125 C 1.1875 -5.878906 1.164062 -6.429688 1.125 -7.484375 L 2.296875 -7.484375 C 2.328125 -6.742188 2.34375 -6.332031 2.34375 -6.25 L 2.375 -6.25 C 2.570312 -6.675781 2.894531 -7.019531 3.34375 -7.28125 C 3.800781 -7.550781 4.304688 -7.6875 4.859375 -7.6875 Z M 4.859375 -7.6875 "/></g></g></g><g fill="#f0f8ff" fill-opacity="1"><g transform="translate(158.889623, 248.260839)"><g><path d="M 3.46875 -7.6875 C 4.664062 -7.664062 5.515625 -7.207031 6.015625 -6.3125 L 4.96875 -5.625 C 4.613281 -6.226562 4.085938 -6.53125 3.390625 -6.53125 C 2.972656 -6.53125 2.625 -6.429688 2.34375 -6.234375 C 2.0625 -6.046875 1.921875 -5.796875 1.921875 -5.484375 C 1.921875 -4.984375 2.546875 -4.625 3.796875 -4.40625 C 4.691406 -4.238281 5.320312 -3.972656 5.6875 -3.609375 C 6.0625 -3.253906 6.25 -2.769531 6.25 -2.15625 C 6.25 -1.425781 5.976562 -0.851562 5.4375 -0.4375 C 4.894531 -0.0195312 4.171875 0.1875 3.265625 0.1875 C 2.554688 0.1875 1.972656 0.078125 1.515625 -0.140625 C 1.066406 -0.367188 0.679688 -0.722656 0.359375 -1.203125 L 1.34375 -1.96875 C 1.65625 -1.59375 1.957031 -1.328125 2.25 -1.171875 C 2.550781 -1.023438 2.890625 -0.953125 3.265625 -0.953125 C 3.742188 -0.953125 4.132812 -1.054688 4.4375 -1.265625 C 4.75 -1.472656 4.90625 -1.753906 4.90625 -2.109375 C 4.90625 -2.472656 4.742188 -2.742188 4.421875 -2.921875 C 4.097656 -3.109375 3.554688 -3.273438 2.796875 -3.421875 C 2.054688 -3.578125 1.515625 -3.816406 1.171875 -4.140625 C 0.835938 -4.460938 0.671875 -4.90625 0.671875 -5.46875 C 0.671875 -6.101562 0.925781 -6.625 1.4375 -7.03125 C 1.957031 -7.445312 2.632812 -7.664062 3.46875 -7.6875 Z M 3.46875 -7.6875 "/></g></g></g><g fill="#f0f8ff" fill-opacity="1"><g transform="translate(164.615536, 248.260839)"><g><path d="M 1.921875 -11.328125 C 2.160156 -11.328125 2.367188 -11.238281 2.546875 -11.0625 C 2.734375 -10.882812 2.828125 -10.671875 2.828125 -10.421875 C 2.828125 -10.148438 2.738281 -9.925781 2.5625 -9.75 C 2.394531 -9.582031 2.179688 -9.5 1.921875 -9.5 C 1.648438 -9.5 1.429688 -9.582031 1.265625 -9.75 C 1.097656 -9.925781 1.015625 -10.148438 1.015625 -10.421875 C 1.015625 -10.671875 1.101562 -10.882812 1.28125 -11.0625 C 1.457031 -11.238281 1.671875 -11.328125 1.921875 -11.328125 Z M 2.546875 -7.484375 L 2.546875 0 L 1.296875 0 L 1.296875 -7.484375 Z M 2.546875 -7.484375 "/></g></g></g><g fill="#f0f8ff" fill-opacity="1"><g transform="translate(167.366169, 248.260839)"><g><path d="M 4.71875 -7.6875 C 5.289062 -7.6875 5.820312 -7.550781 6.3125 -7.28125 C 6.800781 -7.007812 7.15625 -6.648438 7.375 -6.203125 L 7.40625 -6.203125 L 7.40625 -7.484375 L 8.65625 -7.484375 L 8.65625 -0.25 C 8.65625 1.019531 8.3125 2.015625 7.625 2.734375 C 6.945312 3.453125 5.929688 3.820312 4.578125 3.84375 C 3.835938 3.84375 3.171875 3.734375 2.578125 3.515625 C 1.984375 3.304688 1.421875 2.941406 0.890625 2.421875 L 1.796875 1.390625 C 2.585938 2.253906 3.515625 2.6875 4.578125 2.6875 C 6.460938 2.6875 7.40625 1.6875 7.40625 -0.3125 L 7.40625 -1.296875 L 7.375 -1.296875 C 7.09375 -0.847656 6.707031 -0.503906 6.21875 -0.265625 C 5.726562 -0.0234375 5.226562 0.09375 4.71875 0.09375 C 3.5625 0.09375 2.613281 -0.265625 1.875 -0.984375 C 1.144531 -1.703125 0.769531 -2.625 0.75 -3.75 C 0.75 -4.945312 1.109375 -5.894531 1.828125 -6.59375 C 2.554688 -7.300781 3.519531 -7.664062 4.71875 -7.6875 Z M 2.09375 -3.75 C 2.09375 -3 2.347656 -2.363281 2.859375 -1.84375 C 3.367188 -1.332031 3.992188 -1.070312 4.734375 -1.0625 C 5.546875 -1.0625 6.191406 -1.320312 6.671875 -1.84375 C 7.160156 -2.363281 7.40625 -3.007812 7.40625 -3.78125 C 7.40625 -4.601562 7.15625 -5.265625 6.65625 -5.765625 C 6.164062 -6.265625 5.519531 -6.519531 4.71875 -6.53125 C 3.957031 -6.53125 3.328125 -6.257812 2.828125 -5.71875 C 2.335938 -5.1875 2.09375 -4.53125 2.09375 -3.75 Z M 2.09375 -3.75 "/></g></g></g><g fill="#f0f8ff" fill-opacity="1"><g transform="translate(176.051376, 248.260839)"><g><path d="M 2.4375 -12.09375 L 2.4375 -6.453125 L 2.46875 -6.453125 C 2.6875 -6.828125 3.015625 -7.125 3.453125 -7.34375 C 3.890625 -7.570312 4.363281 -7.6875 4.875 -7.6875 C 5.8125 -7.6875 6.519531 -7.410156 7 -6.859375 C 7.476562 -6.316406 7.71875 -5.59375 7.71875 -4.6875 L 7.71875 0 L 6.46875 0 L 6.46875 -4.546875 C 6.46875 -5.117188 6.332031 -5.585938 6.0625 -5.953125 C 5.789062 -6.328125 5.351562 -6.519531 4.75 -6.53125 C 3.976562 -6.53125 3.398438 -6.273438 3.015625 -5.765625 C 2.628906 -5.265625 2.4375 -4.582031 2.4375 -3.71875 L 2.4375 0 L 1.1875 0 L 1.1875 -12.09375 Z M 2.4375 -12.09375 "/></g></g></g><g fill="#f0f8ff" fill-opacity="1"><g transform="translate(183.856796, 248.260839)"><g><path d="M 3.078125 -9.609375 L 3.078125 -7.484375 L 5.28125 -7.484375 L 5.28125 -6.4375 L 3.078125 -6.4375 L 3.078125 -2.4375 C 3.078125 -1.832031 3.171875 -1.429688 3.359375 -1.234375 C 3.546875 -1.046875 3.820312 -0.953125 4.1875 -0.953125 C 4.601562 -0.953125 4.972656 -1.039062 5.296875 -1.21875 L 5.34375 -0.078125 C 4.914062 0.0976562 4.429688 0.1875 3.890625 0.1875 C 3.117188 0.1875 2.582031 0 2.28125 -0.375 C 1.976562 -0.75 1.828125 -1.367188 1.828125 -2.234375 L 1.828125 -6.4375 L 0.1875 -6.4375 L 0.1875 -7.484375 L 1.828125 -7.484375 L 1.828125 -9.609375 Z M 3.078125 -9.609375 "/></g></g></g><g fill="#f0f8ff" fill-opacity="1"><g transform="translate(188.399001, 248.260839)"><g><path d="M 3.46875 -7.6875 C 4.664062 -7.664062 5.515625 -7.207031 6.015625 -6.3125 L 4.96875 -5.625 C 4.613281 -6.226562 4.085938 -6.53125 3.390625 -6.53125 C 2.972656 -6.53125 2.625 -6.429688 2.34375 -6.234375 C 2.0625 -6.046875 1.921875 -5.796875 1.921875 -5.484375 C 1.921875 -4.984375 2.546875 -4.625 3.796875 -4.40625 C 4.691406 -4.238281 5.320312 -3.972656 5.6875 -3.609375 C 6.0625 -3.253906 6.25 -2.769531 6.25 -2.15625 C 6.25 -1.425781 5.976562 -0.851562 5.4375 -0.4375 C 4.894531 -0.0195312 4.171875 0.1875 3.265625 0.1875 C 2.554688 0.1875 1.972656 0.078125 1.515625 -0.140625 C 1.066406 -0.367188 0.679688 -0.722656 0.359375 -1.203125 L 1.34375 -1.96875 C 1.65625 -1.59375 1.957031 -1.328125 2.25 -1.171875 C 2.550781 -1.023438 2.890625 -0.953125 3.265625 -0.953125 C 3.742188 -0.953125 4.132812 -1.054688 4.4375 -1.265625 C 4.75 -1.472656 4.90625 -1.753906 4.90625 -2.109375 C 4.90625 -2.472656 4.742188 -2.742188 4.421875 -2.921875 C 4.097656 -3.109375 3.554688 -3.273438 2.796875 -3.421875 C 2.054688 -3.578125 1.515625 -3.816406 1.171875 -4.140625 C 0.835938 -4.460938 0.671875 -4.90625 0.671875 -5.46875 C 0.671875 -6.101562 0.925781 -6.625 1.4375 -7.03125 C 1.957031 -7.445312 2.632812 -7.664062 3.46875 -7.6875 Z M 3.46875 -7.6875 "/></g></g></g><g fill="#f0f8ff" fill-opacity="1"><g transform="translate(194.124915, 248.260839)"><g><path d="M 3.1875 -0.859375 C 3.1875 -0.609375 3.085938 -0.382812 2.890625 -0.1875 C 2.703125 0 2.476562 0.09375 2.21875 0.09375 C 1.976562 0.09375 1.757812 0 1.5625 -0.1875 C 1.363281 -0.382812 1.265625 -0.609375 1.265625 -0.859375 C 1.265625 -1.117188 1.359375 -1.34375 1.546875 -1.53125 C 1.734375 -1.726562 1.957031 -1.828125 2.21875 -1.828125 C 2.488281 -1.828125 2.71875 -1.734375 2.90625 -1.546875 C 3.09375 -1.359375 3.1875 -1.128906 3.1875 -0.859375 Z M 3.1875 -0.859375 "/></g></g></g><g fill="#f0f8ff" fill-opacity="1"><g transform="translate(197.483401, 248.260839)"><g/></g></g><g fill="#f0f8ff" fill-opacity="1"><g transform="translate(200.841887, 248.260839)"><g><path d="M 5.421875 -11.328125 C 7.078125 -11.328125 8.429688 -10.804688 9.484375 -9.765625 C 10.546875 -8.722656 11.085938 -7.351562 11.109375 -5.65625 C 11.109375 -3.976562 10.578125 -2.617188 9.515625 -1.578125 C 8.453125 -0.546875 7.097656 -0.0195312 5.453125 0 L 1.203125 0 L 1.203125 -11.328125 Z M 5.109375 -1.25 C 6.523438 -1.25 7.632812 -1.625 8.4375 -2.375 C 9.238281 -3.125 9.644531 -4.21875 9.65625 -5.65625 C 9.65625 -7.050781 9.257812 -8.128906 8.46875 -8.890625 C 7.6875 -9.660156 6.566406 -10.054688 5.109375 -10.078125 L 2.546875 -10.078125 L 2.546875 -1.25 Z M 5.109375 -1.25 "/></g></g></g><g fill="#f0f8ff" fill-opacity="1"><g transform="translate(211.606588, 248.260839)"><g><path d="M 4.59375 -7.6875 C 5.695312 -7.6875 6.5625 -7.332031 7.1875 -6.625 C 7.8125 -5.925781 8.128906 -4.9375 8.140625 -3.65625 L 8.140625 -3.359375 L 2.09375 -3.359375 C 2.15625 -2.660156 2.414062 -2.085938 2.875 -1.640625 C 3.332031 -1.191406 3.894531 -0.960938 4.5625 -0.953125 C 5.570312 -0.953125 6.359375 -1.332031 6.921875 -2.09375 L 7.875 -1.359375 C 7.476562 -0.847656 7.015625 -0.460938 6.484375 -0.203125 C 5.953125 0.0546875 5.3125 0.1875 4.5625 0.1875 C 3.414062 0.1875 2.492188 -0.179688 1.796875 -0.921875 C 1.109375 -1.660156 0.757812 -2.601562 0.75 -3.75 C 0.75 -4.875 1.101562 -5.800781 1.8125 -6.53125 C 2.519531 -7.269531 3.445312 -7.65625 4.59375 -7.6875 Z M 6.796875 -4.421875 C 6.765625 -5.066406 6.550781 -5.578125 6.15625 -5.953125 C 5.769531 -6.335938 5.226562 -6.53125 4.53125 -6.53125 C 3.882812 -6.53125 3.34375 -6.347656 2.90625 -5.984375 C 2.46875 -5.617188 2.195312 -5.097656 2.09375 -4.421875 Z M 6.796875 -4.421875 "/></g></g></g><g fill="#f0f8ff" fill-opacity="1"><g transform="translate(219.412007, 248.260839)"><g><path d="M 4.59375 -7.6875 C 5.695312 -7.6875 6.5625 -7.332031 7.1875 -6.625 C 7.8125 -5.925781 8.128906 -4.9375 8.140625 -3.65625 L 8.140625 -3.359375 L 2.09375 -3.359375 C 2.15625 -2.660156 2.414062 -2.085938 2.875 -1.640625 C 3.332031 -1.191406 3.894531 -0.960938 4.5625 -0.953125 C 5.570312 -0.953125 6.359375 -1.332031 6.921875 -2.09375 L 7.875 -1.359375 C 7.476562 -0.847656 7.015625 -0.460938 6.484375 -0.203125 C 5.953125 0.0546875 5.3125 0.1875 4.5625 0.1875 C 3.414062 0.1875 2.492188 -0.179688 1.796875 -0.921875 C 1.109375 -1.660156 0.757812 -2.601562 0.75 -3.75 C 0.75 -4.875 1.101562 -5.800781 1.8125 -6.53125 C 2.519531 -7.269531 3.445312 -7.65625 4.59375 -7.6875 Z M 6.796875 -4.421875 C 6.765625 -5.066406 6.550781 -5.578125 6.15625 -5.953125 C 5.769531 -6.335938 5.226562 -6.53125 4.53125 -6.53125 C 3.882812 -6.53125 3.34375 -6.347656 2.90625 -5.984375 C 2.46875 -5.617188 2.195312 -5.097656 2.09375 -4.421875 Z M 6.796875 -4.421875 "/></g></g></g><g fill="#f0f8ff" fill-opacity="1"><g transform="translate(227.217427, 248.260839)"><g><path d="M 5.09375 -7.6875 C 6.269531 -7.6875 7.21875 -7.3125 7.9375 -6.5625 C 8.65625 -5.8125 9.019531 -4.875 9.03125 -3.75 C 9.03125 -2.625 8.664062 -1.691406 7.9375 -0.953125 C 7.207031 -0.210938 6.320312 0.164062 5.28125 0.1875 C 4.632812 0.1875 4.050781 0.0507812 3.53125 -0.21875 C 3.019531 -0.5 2.644531 -0.867188 2.40625 -1.328125 L 2.375 -1.328125 L 2.375 3.640625 L 1.125 3.640625 L 1.125 -7.484375 L 2.375 -7.484375 L 2.375 -6.40625 L 2.40625 -6.40625 C 3.132812 -7.257812 4.03125 -7.6875 5.09375 -7.6875 Z M 2.375 -3.75 C 2.375 -2.925781 2.617188 -2.257812 3.109375 -1.75 C 3.609375 -1.238281 4.25 -0.972656 5.03125 -0.953125 C 5.800781 -0.953125 6.429688 -1.210938 6.921875 -1.734375 C 7.410156 -2.253906 7.664062 -2.925781 7.6875 -3.75 C 7.6875 -4.550781 7.4375 -5.210938 6.9375 -5.734375 C 6.4375 -6.265625 5.796875 -6.53125 5.015625 -6.53125 C 4.242188 -6.53125 3.613281 -6.269531 3.125 -5.75 C 2.632812 -5.226562 2.382812 -4.5625 2.375 -3.75 Z M 2.375 -3.75 "/></g></g></g><g fill="#f0f8ff" fill-opacity="1"><g transform="translate(235.902634, 248.260839)"><g><path d="M 4.59375 -7.6875 C 5.695312 -7.6875 6.5625 -7.332031 7.1875 -6.625 C 7.8125 -5.925781 8.128906 -4.9375 8.140625 -3.65625 L 8.140625 -3.359375 L 2.09375 -3.359375 C 2.15625 -2.660156 2.414062 -2.085938 2.875 -1.640625 C 3.332031 -1.191406 3.894531 -0.960938 4.5625 -0.953125 C 5.570312 -0.953125 6.359375 -1.332031 6.921875 -2.09375 L 7.875 -1.359375 C 7.476562 -0.847656 7.015625 -0.460938 6.484375 -0.203125 C 5.953125 0.0546875 5.3125 0.1875 4.5625 0.1875 C 3.414062 0.1875 2.492188 -0.179688 1.796875 -0.921875 C 1.109375 -1.660156 0.757812 -2.601562 0.75 -3.75 C 0.75 -4.875 1.101562 -5.800781 1.8125 -6.53125 C 2.519531 -7.269531 3.445312 -7.65625 4.59375 -7.6875 Z M 6.796875 -4.421875 C 6.765625 -5.066406 6.550781 -5.578125 6.15625 -5.953125 C 5.769531 -6.335938 5.226562 -6.53125 4.53125 -6.53125 C 3.882812 -6.53125 3.34375 -6.347656 2.90625 -5.984375 C 2.46875 -5.617188 2.195312 -5.097656 2.09375 -4.421875 Z M 6.796875 -4.421875 "/></g></g></g><g fill="#f0f8ff" fill-opacity="1"><g transform="translate(243.708053, 248.260839)"><g><path d="M 4.859375 -7.6875 C 5.796875 -7.6875 6.503906 -7.410156 6.984375 -6.859375 C 7.472656 -6.316406 7.71875 -5.59375 7.71875 -4.6875 L 7.71875 0 L 6.46875 0 L 6.46875 -4.546875 C 6.46875 -5.117188 6.332031 -5.585938 6.0625 -5.953125 C 5.789062 -6.328125 5.351562 -6.519531 4.75 -6.53125 C 3.976562 -6.53125 3.398438 -6.273438 3.015625 -5.765625 C 2.628906 -5.265625 2.4375 -4.5625 2.4375 -3.65625 L 2.4375 0 L 1.1875 0 L 1.1875 -5.828125 C 1.1875 -5.878906 1.164062 -6.429688 1.125 -7.484375 L 2.296875 -7.484375 C 2.328125 -6.742188 2.34375 -6.332031 2.34375 -6.25 L 2.375 -6.25 C 2.570312 -6.675781 2.894531 -7.019531 3.34375 -7.28125 C 3.800781 -7.550781 4.304688 -7.6875 4.859375 -7.6875 Z M 4.859375 -7.6875 "/></g></g></g><g fill="#f0f8ff" fill-opacity="1"><g transform="translate(251.513473, 248.260839)"><g/></g></g><g fill="#f0f8ff" fill-opacity="1"><g transform="translate(254.871958, 248.260839)"><g><path d="M 1.5625 -11.328125 L 4.75 -6.203125 L 8.03125 -11.328125 L 9.640625 -11.328125 L 5.421875 -4.875 L 5.421875 0 L 4.078125 0 L 4.078125 -4.875 L -0.140625 -11.328125 Z M 1.5625 -11.328125 "/></g></g></g><g fill="#f0f8ff" fill-opacity="1"><g transform="translate(261.508673, 248.260839)"><g><path d="M 4.75 -7.6875 C 5.914062 -7.6875 6.863281 -7.320312 7.59375 -6.59375 C 8.332031 -5.875 8.71875 -4.925781 8.75 -3.75 C 8.75 -2.601562 8.375 -1.664062 7.625 -0.9375 C 6.882812 -0.207031 5.925781 0.164062 4.75 0.1875 C 3.570312 0.1875 2.613281 -0.179688 1.875 -0.921875 C 1.144531 -1.660156 0.769531 -2.601562 0.75 -3.75 C 0.75 -4.894531 1.117188 -5.832031 1.859375 -6.5625 C 2.609375 -7.289062 3.570312 -7.664062 4.75 -7.6875 Z M 2.09375 -3.75 C 2.09375 -2.925781 2.335938 -2.257812 2.828125 -1.75 C 3.328125 -1.238281 3.96875 -0.972656 4.75 -0.953125 C 5.53125 -0.953125 6.164062 -1.210938 6.65625 -1.734375 C 7.144531 -2.253906 7.394531 -2.925781 7.40625 -3.75 C 7.40625 -4.550781 7.15625 -5.210938 6.65625 -5.734375 C 6.164062 -6.265625 5.523438 -6.53125 4.734375 -6.53125 C 3.960938 -6.53125 3.332031 -6.269531 2.84375 -5.75 C 2.351562 -5.226562 2.101562 -4.5625 2.09375 -3.75 Z M 2.09375 -3.75 "/></g></g></g><g fill="#f0f8ff" fill-opacity="1"><g transform="translate(269.921945, 248.260839)"><g><path d="M 2.4375 -7.484375 L 2.4375 -2.9375 C 2.4375 -2.363281 2.570312 -1.890625 2.84375 -1.515625 C 3.113281 -1.148438 3.546875 -0.960938 4.140625 -0.953125 C 4.910156 -0.953125 5.488281 -1.207031 5.875 -1.71875 C 6.269531 -2.238281 6.46875 -2.925781 6.46875 -3.78125 L 6.46875 -7.484375 L 7.71875 -7.484375 L 7.71875 -1.65625 C 7.726562 -1.363281 7.75 -0.8125 7.78125 0 L 6.59375 0 C 6.582031 -0.507812 6.570312 -0.921875 6.5625 -1.234375 L 6.53125 -1.234375 C 6.332031 -0.816406 6.003906 -0.472656 5.546875 -0.203125 C 5.097656 0.0546875 4.585938 0.1875 4.015625 0.1875 C 3.097656 0.175781 2.394531 -0.09375 1.90625 -0.625 C 1.425781 -1.164062 1.1875 -1.890625 1.1875 -2.796875 L 1.1875 -7.484375 Z M 2.4375 -7.484375 "/></g></g></g><g fill="#f0f8ff" fill-opacity="1"><g transform="translate(277.727365, 248.260839)"><g><path d="M 4.859375 -7.6875 C 5.054688 -7.6875 5.226562 -7.65625 5.375 -7.59375 L 5.296875 -6.34375 C 5.054688 -6.40625 4.832031 -6.4375 4.625 -6.4375 C 3.894531 -6.4375 3.347656 -6.195312 2.984375 -5.71875 C 2.617188 -5.25 2.4375 -4.582031 2.4375 -3.71875 L 2.4375 0 L 1.1875 0 L 1.1875 -5.828125 C 1.1875 -5.972656 1.164062 -6.523438 1.125 -7.484375 L 2.296875 -7.484375 C 2.328125 -6.742188 2.34375 -6.332031 2.34375 -6.25 L 2.375 -6.25 C 2.570312 -6.675781 2.894531 -7.019531 3.34375 -7.28125 C 3.800781 -7.550781 4.304688 -7.6875 4.859375 -7.6875 Z M 4.859375 -7.6875 "/></g></g></g><g fill="#f0f8ff" fill-opacity="1"><g transform="translate(282.26957, 248.260839)"><g/></g></g><g fill="#f0f8ff" fill-opacity="1"><g transform="translate(285.628056, 248.260839)"><g><path d="M 4.71875 -11.609375 C 6.09375 -11.609375 7.148438 -11.164062 7.890625 -10.28125 L 6.78125 -9.328125 C 6.351562 -10.003906 5.664062 -10.351562 4.71875 -10.375 C 4 -10.375 3.414062 -10.203125 2.96875 -9.859375 C 2.519531 -9.515625 2.296875 -9.050781 2.296875 -8.46875 C 2.296875 -7.957031 2.46875 -7.550781 2.8125 -7.25 C 3.15625 -6.945312 3.796875 -6.65625 4.734375 -6.375 C 5.953125 -6.019531 6.8125 -5.585938 7.3125 -5.078125 C 7.820312 -4.566406 8.078125 -3.882812 8.078125 -3.03125 C 8.078125 -2.019531 7.703125 -1.21875 6.953125 -0.625 C 6.210938 -0.03125 5.257812 0.269531 4.09375 0.28125 C 3.3125 0.28125 2.617188 0.144531 2.015625 -0.125 C 1.410156 -0.40625 0.941406 -0.789062 0.609375 -1.28125 L 1.765625 -2.21875 C 2.003906 -1.8125 2.34375 -1.5 2.78125 -1.28125 C 3.21875 -1.0625 3.679688 -0.953125 4.171875 -0.953125 C 4.847656 -0.953125 5.425781 -1.140625 5.90625 -1.515625 C 6.394531 -1.898438 6.640625 -2.367188 6.640625 -2.921875 C 6.640625 -3.429688 6.5 -3.828125 6.21875 -4.109375 C 5.9375 -4.398438 5.46875 -4.644531 4.8125 -4.84375 L 3.515625 -5.28125 C 2.546875 -5.613281 1.859375 -6.023438 1.453125 -6.515625 C 1.054688 -7.015625 0.859375 -7.628906 0.859375 -8.359375 C 0.859375 -9.316406 1.21875 -10.09375 1.9375 -10.6875 C 2.65625 -11.289062 3.582031 -11.597656 4.71875 -11.609375 Z M 4.71875 -11.609375 "/></g></g></g><g fill="#f0f8ff" fill-opacity="1"><g transform="translate(293.433476, 248.260839)"><g><path d="M 3.078125 -9.609375 L 3.078125 -7.484375 L 5.28125 -7.484375 L 5.28125 -6.4375 L 3.078125 -6.4375 L 3.078125 -2.4375 C 3.078125 -1.832031 3.171875 -1.429688 3.359375 -1.234375 C 3.546875 -1.046875 3.820312 -0.953125 4.1875 -0.953125 C 4.601562 -0.953125 4.972656 -1.039062 5.296875 -1.21875 L 5.34375 -0.078125 C 4.914062 0.0976562 4.429688 0.1875 3.890625 0.1875 C 3.117188 0.1875 2.582031 0 2.28125 -0.375 C 1.976562 -0.75 1.828125 -1.367188 1.828125 -2.234375 L 1.828125 -6.4375 L 0.1875 -6.4375 L 0.1875 -7.484375 L 1.828125 -7.484375 L 1.828125 -9.609375 Z M 3.078125 -9.609375 "/></g></g></g><g fill="#f0f8ff" fill-opacity="1"><g transform="translate(297.975681, 248.260839)"><g><path d="M 2.4375 -7.484375 L 2.4375 -2.9375 C 2.4375 -2.363281 2.570312 -1.890625 2.84375 -1.515625 C 3.113281 -1.148438 3.546875 -0.960938 4.140625 -0.953125 C 4.910156 -0.953125 5.488281 -1.207031 5.875 -1.71875 C 6.269531 -2.238281 6.46875 -2.925781 6.46875 -3.78125 L 6.46875 -7.484375 L 7.71875 -7.484375 L 7.71875 -1.65625 C 7.726562 -1.363281 7.75 -0.8125 7.78125 0 L 6.59375 0 C 6.582031 -0.507812 6.570312 -0.921875 6.5625 -1.234375 L 6.53125 -1.234375 C 6.332031 -0.816406 6.003906 -0.472656 5.546875 -0.203125 C 5.097656 0.0546875 4.585938 0.1875 4.015625 0.1875 C 3.097656 0.175781 2.394531 -0.09375 1.90625 -0.625 C 1.425781 -1.164062 1.1875 -1.890625 1.1875 -2.796875 L 1.1875 -7.484375 Z M 2.4375 -7.484375 "/></g></g></g><g fill="#f0f8ff" fill-opacity="1"><g transform="translate(305.781101, 248.260839)"><g><path d="M 8.65625 -12.09375 L 8.65625 0 L 7.40625 0 L 7.40625 -1.328125 L 7.375 -1.328125 C 7.113281 -0.847656 6.722656 -0.472656 6.203125 -0.203125 C 5.679688 0.0546875 5.113281 0.1875 4.5 0.1875 C 3.4375 0.1875 2.550781 -0.1875 1.84375 -0.9375 C 1.132812 -1.6875 0.769531 -2.625 0.75 -3.75 C 0.75 -4.882812 1.113281 -5.816406 1.84375 -6.546875 C 2.570312 -7.285156 3.519531 -7.664062 4.6875 -7.6875 C 5.757812 -7.6875 6.65625 -7.257812 7.375 -6.40625 L 7.40625 -6.40625 L 7.40625 -12.09375 Z M 2.09375 -3.75 C 2.09375 -2.925781 2.335938 -2.253906 2.828125 -1.734375 C 3.328125 -1.222656 3.96875 -0.960938 4.75 -0.953125 C 5.53125 -0.953125 6.160156 -1.207031 6.640625 -1.71875 C 7.128906 -2.238281 7.382812 -2.914062 7.40625 -3.75 C 7.40625 -4.550781 7.15625 -5.210938 6.65625 -5.734375 C 6.164062 -6.265625 5.523438 -6.53125 4.734375 -6.53125 C 3.960938 -6.53125 3.332031 -6.269531 2.84375 -5.75 C 2.363281 -5.226562 2.113281 -4.5625 2.09375 -3.75 Z M 2.09375 -3.75 "/></g></g></g><g fill="#f0f8ff" fill-opacity="1"><g transform="translate(314.466319, 248.260839)"><g><path d="M 1.609375 -7.484375 L 3.9375 -1.609375 L 3.96875 -1.609375 L 6.1875 -7.484375 L 7.546875 -7.484375 L 3.890625 1.84375 C 3.597656 2.582031 3.269531 3.097656 2.90625 3.390625 C 2.539062 3.691406 2.050781 3.84375 1.4375 3.84375 C 0.976562 3.84375 0.601562 3.773438 0.3125 3.640625 L 0.484375 2.5625 C 0.628906 2.644531 0.9375 2.6875 1.40625 2.6875 C 2 2.6875 2.429688 2.316406 2.703125 1.578125 L 3.265625 0.046875 L 0.15625 -7.484375 Z M 1.609375 -7.484375 "/></g></g></g><g fill="#f0f8ff" fill-opacity="1"><g transform="translate(321.088007, 248.260839)"><g><path d="M 3.1875 -0.859375 C 3.1875 -0.609375 3.085938 -0.382812 2.890625 -0.1875 C 2.703125 0 2.476562 0.09375 2.21875 0.09375 C 1.976562 0.09375 1.757812 0 1.5625 -0.1875 C 1.363281 -0.382812 1.265625 -0.609375 1.265625 -0.859375 C 1.265625 -1.117188 1.359375 -1.34375 1.546875 -1.53125 C 1.734375 -1.726562 1.957031 -1.828125 2.21875 -1.828125 C 2.488281 -1.828125 2.71875 -1.734375 2.90625 -1.546875 C 3.09375 -1.359375 3.1875 -1.128906 3.1875 -0.859375 Z M 3.1875 -0.859375 "/></g></g></g></svg>